<svg width="152" height="24" viewBox="0 0 152 24" fill="none" xmlns="http://www.w3.org/2000/svg">
<path d="M15.4982 6.86867C15.4278 6.78342 15.3394 6.71482 15.2396 6.66781C15.1397 6.62079 15.0308 6.59648 14.9205 6.59665C14.8089 6.59639 14.6986 6.62061 14.5973 6.66759C14.4959 6.71456 14.406 6.78321 14.3338 6.86867L6.34564 16.5149C6.21591 16.672 6.15269 16.8739 6.16957 17.0773C6.18645 17.2807 6.2821 17.4694 6.43594 17.6028C6.51238 17.6695 6.60133 17.7203 6.69762 17.7519C6.79391 17.7836 6.89557 17.7956 6.99655 17.7871C7.09752 17.7787 7.19575 17.75 7.2855 17.7028C7.37524 17.6556 7.45465 17.5907 7.51903 17.5121L14.9205 8.57308L22.3129 17.5121C22.3852 17.5976 22.4751 17.6662 22.5764 17.7132C22.6777 17.7602 22.7881 17.7844 22.8997 17.7841C23.0816 17.7862 23.258 17.7217 23.3961 17.6028C23.5499 17.4694 23.6455 17.2807 23.6624 17.0773C23.6793 16.8739 23.6161 16.672 23.4863 16.5149L15.4982 6.86867ZM17.493 4.39368C17.1792 4.01406 16.786 3.70843 16.3415 3.49848C15.8969 3.28853 15.4118 3.17945 14.9205 3.17887C14.4291 3.17882 13.9439 3.2876 13.4992 3.49759C13.0545 3.70759 12.6615 4.01358 12.3481 4.39368L4.12524 14.3662C3.46764 15.0895 3.10373 16.034 3.10528 17.0134C3.0995 17.8249 3.34954 18.6174 3.81959 19.2774C4.28964 19.9374 4.95555 20.4311 5.72201 20.6877C6.48846 20.9444 7.31612 20.9507 8.08642 20.706C8.85672 20.4613 9.53015 19.978 10.0103 19.3253L14.9205 13.4052L19.7856 19.271C20.1361 19.7734 20.6023 20.1833 21.1445 20.4659C21.6867 20.7484 22.2888 20.8952 22.8997 20.8937C23.6165 20.8854 24.3169 20.6774 24.9229 20.2928C25.529 19.9082 26.0169 19.3622 26.3322 18.7155C26.6476 18.0689 26.778 17.3471 26.709 16.6304C26.64 15.9137 26.3743 15.2303 25.9415 14.6563C25.9415 14.6019 17.493 4.4209 17.493 4.4209V4.39368ZM24.5244 18.6544C24.312 18.8704 24.059 19.0419 23.7801 19.159C23.5012 19.276 23.2019 19.3363 22.8997 19.3363C22.5974 19.3363 22.2981 19.276 22.0192 19.159C21.7403 19.0419 21.4874 18.8704 21.275 18.6544L14.9566 10.9756L8.54803 18.6544C8.33501 18.8693 8.08184 19.0398 7.80303 19.1562C7.52421 19.2726 7.22525 19.3325 6.92333 19.3325C6.62141 19.3325 6.32244 19.2726 6.04363 19.1562C5.76482 19.0398 5.51165 18.8693 5.29863 18.6544C4.90781 18.2577 4.67046 17.7341 4.6291 17.1776C4.58775 16.621 4.7451 16.0679 5.07298 15.6174L13.4854 5.43629C13.6612 5.22233 13.8835 5.0517 14.1352 4.93761C14.3732 4.8287 14.6319 4.77297 14.8935 4.77438C15.155 4.77297 15.4136 4.8287 15.6516 4.93761C15.8985 5.05546 16.1172 5.22561 16.2925 5.43629L24.5334 15.4089C24.9478 15.8426 25.1776 16.4214 25.1742 17.0225C25.177 17.6306 24.944 18.216 24.5244 18.6544ZM28.6674 13.2149C28.6674 13.1514 19.8127 2.44447 19.8127 2.44447C19.2031 1.70216 18.4349 1.10718 17.5652 0.703766C17.1497 0.511798 16.7136 0.368838 16.2654 0.277692C15.8238 0.17972 15.3728 0.131042 14.9205 0.132605C14.4653 0.131039 14.0112 0.179713 13.5666 0.277692C13.1184 0.37335 12.6825 0.519305 12.2668 0.71284C11.3968 1.11176 10.6283 1.70386 10.0193 2.44447L1.95894 12.0816C1.01212 13.0661 0.373084 14.3075 0.120702 15.6527C-0.13168 16.9978 0.0136316 18.3877 0.538735 19.6508C1.06384 20.9139 1.94574 21.9949 3.07553 22.7604C4.20532 23.5258 5.53353 23.9421 6.89622 23.958C7.79906 23.9601 8.69347 23.7835 9.52827 23.4382C10.3631 23.0928 11.1219 22.5855 11.7613 21.9454C11.8516 21.8729 14.8844 18.183 14.8844 18.183C14.8844 18.183 17.9804 21.9182 18.0255 21.9545C19.3101 23.2399 21.0502 23.9605 22.8635 23.958C23.7727 23.9533 24.672 23.7687 25.5102 23.4148C26.3483 23.061 27.1088 22.5448 27.7484 21.8957C28.3879 21.2466 28.8938 20.4774 29.2374 19.632C29.5809 18.7865 29.7552 17.8813 29.7505 16.9682C29.7727 15.6084 29.3823 14.274 28.6313 13.1424L28.6674 13.2149ZM27.8009 19.0805C27.6698 19.3987 27.5065 19.7025 27.3135 19.9871C27.1188 20.2757 26.8983 20.5458 26.6545 20.794C26.4112 21.042 26.1452 21.2666 25.8602 21.4649C25.5763 21.6603 25.274 21.8274 24.9576 21.9635C24.2965 22.2446 23.5859 22.3893 22.868 22.3893C22.1502 22.3893 21.4396 22.2446 20.7785 21.9635C20.4609 21.8298 20.1584 21.6626 19.8759 21.4649C19.5862 21.269 19.3171 21.0443 19.0726 20.794L18.0526 19.5701L14.8935 15.7443L10.7323 20.7577C10.4909 21.0078 10.2248 21.2327 9.93809 21.4287C9.65418 21.6241 9.35186 21.7911 9.03548 21.9272C8.37601 22.2085 7.66689 22.3535 6.95043 22.3535C6.23397 22.3535 5.5248 22.2085 4.86534 21.9272C4.54801 21.793 4.24549 21.626 3.96272 21.4287C3.39166 21.0304 2.89897 20.5294 2.50952 19.9509C2.31686 19.6646 2.1507 19.3611 2.01309 19.0443C1.73453 18.3755 1.59328 17.6569 1.59787 16.9319C1.59355 16.204 1.73476 15.4826 2.01309 14.8105C2.1507 14.4937 2.31686 14.1902 2.50952 13.9039L2.60879 13.7679L2.663 13.7044L11.2198 3.35107C11.6825 2.78706 12.2656 2.33474 12.9258 2.02747C13.5623 1.74302 14.2509 1.59484 14.9476 1.59232C15.66 1.58941 16.364 1.74563 17.0087 2.04983C17.6535 2.35403 18.2228 2.79854 18.6754 3.35107L24.2265 10.0781L26.7358 13.1061L27.3135 13.8042C27.3315 13.8364 27.3526 13.8668 27.3766 13.8948C27.5696 14.1794 27.733 14.4832 27.8641 14.8014C28.1455 15.4729 28.2897 16.1943 28.2883 16.9228C28.2885 17.6483 28.1443 18.3666 27.8641 19.0352" fill="#008EFF"/>
<path d="M35.8071 15.1913C35.8071 12.8795 37.4228 11.2747 40.4736 11.2747H43.2357C43.475 11.2747 43.7047 11.1792 43.8739 11.0092C44.0432 10.8392 44.1383 10.6086 44.1383 10.3681V9.81509C44.1383 7.91122 42.9378 7.04083 41.0694 7.04083C39.201 7.04083 38.4698 7.77524 38.172 8.69091C38.1658 8.71485 38.1518 8.73595 38.1321 8.75078C38.1124 8.76561 38.0883 8.77326 38.0637 8.77247H36.466C36.4506 8.77133 36.4356 8.7672 36.4218 8.76019C36.408 8.75318 36.3957 8.74343 36.3856 8.73164C36.3755 8.71984 36.3679 8.70624 36.3631 8.69146C36.3583 8.67669 36.3565 8.66102 36.3577 8.64554C36.6195 6.53314 38.4067 5.38177 41.1596 5.38177C43.9126 5.38177 46.0067 6.59661 46.0067 9.77879V18.9809C46.0044 19.0105 45.9911 19.0383 45.9693 19.0585C45.9475 19.0786 45.919 19.0898 45.8894 19.0897H44.3278C44.2982 19.0898 44.2697 19.0786 44.2479 19.0585C44.2261 19.0383 44.2128 19.0105 44.2105 18.9809V17.6573C44.2126 17.6248 44.2044 17.5925 44.1871 17.5651C44.1699 17.5376 44.1444 17.5164 44.1144 17.5043C44.0843 17.4923 44.0513 17.49 44.0199 17.4979C43.9885 17.5058 43.9605 17.5236 43.9397 17.5485C43.4726 18.0885 42.8978 18.5241 42.2526 18.827C41.6074 19.13 40.906 19.2936 40.1938 19.3072C37.5943 19.3072 35.8162 17.6754 35.8162 15.1822L35.8071 15.1913ZM44.1383 14.466V13.3509C44.1383 13.2818 44.1248 13.2135 44.0984 13.1497C44.0721 13.0859 44.0336 13.0279 43.985 12.979C43.9363 12.9302 43.8786 12.8915 43.8151 12.865C43.7516 12.8386 43.6835 12.825 43.6148 12.825H40.5188C38.542 12.825 37.7387 13.8314 37.7387 15.1459C37.7387 16.8504 39.0926 17.6573 40.6361 17.6573C41.0765 17.6867 41.5182 17.6267 41.935 17.4809C42.3518 17.335 42.735 17.1065 43.0619 16.8086C43.3888 16.5108 43.6525 16.1498 43.8375 15.7473C44.0224 15.3448 44.1247 14.9091 44.1383 14.466Z" fill="#008EFF"/>
<path d="M49.7976 10.6039C49.7975 9.23381 50.3344 7.91873 51.2921 6.94317C52.2499 5.9676 53.5515 5.40998 54.9154 5.39091H55.3758C56.1282 5.34484 56.8768 5.53006 57.5218 5.92202C58.1669 6.31397 58.6776 6.89409 58.9862 7.58494C59.003 7.61724 59.0283 7.6443 59.0593 7.66319C59.0904 7.68207 59.126 7.69207 59.1622 7.69207C59.1985 7.69207 59.2341 7.68207 59.2652 7.66319C59.2962 7.6443 59.3215 7.61724 59.3383 7.58494C59.7657 6.91709 60.3496 6.3646 61.0388 5.9758C61.728 5.58701 62.5015 5.37368 63.2917 5.35461C65.9996 5.35461 67.6965 6.84148 67.6965 9.57943V18.9537C67.6944 18.9819 67.6823 19.0083 67.6624 19.0283C67.6426 19.0483 67.6162 19.0604 67.5882 19.0625H65.9634C65.9354 19.0604 65.909 19.0483 65.8892 19.0283C65.8693 19.0083 65.8572 18.9819 65.8551 18.9537V10.0872C65.8963 9.67807 65.8473 9.26485 65.7115 8.8769C65.5758 8.48896 65.3568 8.13581 65.0699 7.84247C64.783 7.54913 64.4353 7.32277 64.0516 7.17956C63.6678 7.03634 63.2574 6.97976 62.8494 7.01378C62.417 7.01321 61.9889 7.10103 61.5914 7.27197C61.1938 7.44291 60.8351 7.69335 60.537 8.00803C60.2389 8.32271 60.0077 8.69502 59.8574 9.10233C59.7072 9.50965 59.6411 9.94345 59.6632 10.3773V18.9537C59.6609 18.9834 59.6475 19.0111 59.6258 19.0313C59.604 19.0515 59.5755 19.0626 59.5458 19.0625H57.9211C57.8915 19.0626 57.863 19.0515 57.8412 19.0313C57.8194 19.0111 57.8061 18.9834 57.8038 18.9537V10.1778C57.8392 9.76187 57.7855 9.34313 57.6461 8.94983C57.5067 8.55654 57.2849 8.1978 56.9958 7.89792C56.7066 7.59803 56.3568 7.36396 55.9699 7.21143C55.583 7.0589 55.168 6.99151 54.753 7.01378C54.3204 7.0113 53.892 7.09879 53.4948 7.27086C53.0976 7.44293 52.7401 7.69586 52.445 8.01357C52.1499 8.33127 51.9235 8.70689 51.7801 9.11683C51.6367 9.52677 51.5795 9.96212 51.6119 10.3954V18.9537C51.6096 18.9834 51.5962 19.0111 51.5745 19.0313C51.5527 19.0515 51.5242 19.0626 51.4945 19.0625H49.8789C49.8501 19.0625 49.8226 19.051 49.8022 19.0306C49.7819 19.0102 49.7705 18.9826 49.7705 18.9537L49.7976 10.6039Z" fill="#008EFF"/>
<path d="M72.5889 0.00586507C72.8713 0.00227992 73.1484 0.0829165 73.3851 0.237716C73.6218 0.392516 73.8073 0.614405 73.9183 0.875279C74.0293 1.13615 74.0606 1.42429 74.0084 1.70308C73.9561 1.98187 73.8226 2.23885 73.6248 2.44135C73.427 2.64385 73.1738 2.78276 72.8973 2.84053C72.6208 2.89831 72.3335 2.8723 72.0717 2.76583C71.8099 2.65936 71.5854 2.47722 71.4268 2.24248C71.2682 2.00774 71.1826 1.73101 71.1808 1.44733C71.1747 1.25866 71.2067 1.07074 71.2749 0.894867C71.3432 0.718993 71.4463 0.558822 71.5779 0.424082C71.7095 0.289343 71.8669 0.182777 72.0407 0.11089C72.2145 0.0390022 72.4009 0.00331354 72.5889 0.00586507ZM71.7946 5.60858H73.4102C73.4252 5.60853 73.4401 5.61163 73.4539 5.61766C73.4677 5.62368 73.48 5.63247 73.4902 5.64355C73.5004 5.65464 73.5082 5.6678 73.5131 5.68207C73.5179 5.69633 73.5198 5.71141 73.5186 5.72644V18.99C73.5186 19.0188 73.5071 19.0465 73.4868 19.0669C73.4665 19.0873 73.4389 19.0988 73.4102 19.0988H71.7946C71.7649 19.0989 71.7364 19.0877 71.7146 19.0676C71.6929 19.0474 71.6795 19.0196 71.6772 18.99V5.72644C71.6772 5.69519 71.6896 5.66521 71.7116 5.64311C71.7336 5.62101 71.7634 5.60858 71.7946 5.60858Z" fill="#008EFF"/>
<path d="M86.6334 18.7632V17.0679C86.6327 17.0357 86.6224 17.0044 86.6039 16.978C86.5855 16.9517 86.5596 16.9313 86.5297 16.9197C86.4997 16.9081 86.4671 16.9056 86.4357 16.9126C86.4044 16.9196 86.3758 16.9358 86.3536 16.9591C85.909 17.5129 85.3525 17.9657 84.7208 18.2877C84.0891 18.6096 83.3966 18.7933 82.689 18.8266C79.7194 18.8266 77.3726 16.7143 77.3726 13.233V11.0118C77.3726 7.49417 79.7465 5.3909 82.68 5.3909H82.9237C84.181 5.37072 85.4073 5.78347 86.3988 6.56045C87.0643 7.13941 87.5963 7.85688 87.9579 8.66315C88.3195 9.46943 88.5021 10.3452 88.4928 11.2294V18.6998C88.4928 22.3262 86.2273 23.9943 82.7883 23.9943C79.584 23.9943 77.9502 22.3443 77.6975 20.513C77.6963 20.4975 77.6981 20.4818 77.7029 20.4671C77.7077 20.4523 77.7153 20.4387 77.7254 20.4269C77.7354 20.4151 77.7478 20.4054 77.7616 20.3983C77.7754 20.3913 77.7904 20.3872 77.8059 20.3861H79.5208C79.5462 20.3873 79.5705 20.3968 79.59 20.4132C79.6096 20.4295 79.6233 20.4518 79.6291 20.4767C79.8457 21.4468 80.974 22.3442 82.8695 22.3442C85.3698 22.3442 86.6334 20.9934 86.6334 18.7178V18.7632ZM79.2229 11.4016V12.7525C79.2229 15.3816 80.8206 17.1223 83.0501 17.1223C85.2795 17.1223 86.6606 15.1731 86.6606 13.1514V11.039C86.6606 8.94475 85.3247 7.00467 83.0501 7.00467C80.7755 7.00467 79.25 8.73625 79.25 11.4016" fill="#008EFF"/>
<path d="M103.296 11.2928V13.4142C103.296 17.1947 100.85 19.3161 97.6544 19.3161C94.4591 19.3161 92.0131 17.2309 92.0131 13.4142V11.2928C92.0131 7.66642 94.4411 5.39087 97.6544 5.39087C100.868 5.39087 103.296 7.52137 103.296 11.2928ZM93.8544 11.5104V13.2148C93.8544 15.9345 95.3076 17.6571 97.6724 17.6571C100.037 17.6571 101.436 15.9799 101.436 13.2148V11.5013C101.436 8.78152 99.947 7.04082 97.6724 7.04082C95.3978 7.04082 93.8544 8.79965 93.8544 11.5013" fill="#008EFF"/>
<path d="M122.06 10.8969H121.267C121.22 10.6689 121.138 10.4686 121.021 10.296C120.906 10.1234 120.765 9.97853 120.599 9.86134C120.435 9.74202 120.253 9.65253 120.053 9.59287C119.852 9.53321 119.643 9.50338 119.426 9.50338C119.03 9.50338 118.671 9.60353 118.349 9.80381C118.029 10.0041 117.775 10.2992 117.585 10.6891C117.398 11.079 117.304 11.5574 117.304 12.1241C117.304 12.6909 117.398 13.1692 117.585 13.5591C117.775 13.9491 118.029 14.2442 118.349 14.4444C118.671 14.6447 119.03 14.7449 119.426 14.7449C119.643 14.7449 119.852 14.715 120.053 14.6554C120.253 14.5957 120.435 14.5073 120.599 14.3901C120.765 14.2708 120.906 14.1248 121.021 13.9522C121.138 13.7775 121.22 13.5772 121.267 13.3514H122.06C122 13.6859 121.891 13.9853 121.734 14.2495C121.576 14.5137 121.38 14.7385 121.146 14.9238C120.911 15.1071 120.648 15.2466 120.356 15.3425C120.066 15.4384 119.756 15.4863 119.426 15.4863C118.868 15.4863 118.371 15.35 117.937 15.0772C117.502 14.8045 117.16 14.4167 116.911 13.9139C116.662 13.4111 116.537 12.8145 116.537 12.1241C116.537 11.4338 116.662 10.8372 116.911 10.3344C117.16 9.83151 117.502 9.44373 117.937 9.171C118.371 8.89827 118.868 8.76191 119.426 8.76191C119.756 8.76191 120.066 8.80985 120.356 8.90573C120.648 9.00161 120.911 9.14223 121.146 9.3276C121.38 9.51084 121.576 9.73456 121.734 9.99877C121.891 10.2608 122 10.5602 122.06 10.8969ZM123.34 15.3969V8.8514H124.133V14.6937H127.176V15.3969H123.34ZM129.196 8.8514V15.3969H128.403V8.8514H129.196ZM135.975 8.8514V15.3969H135.208L131.641 10.2576H131.577V15.3969H130.785V8.8514H131.552L135.131 14.0034H135.195V8.8514H135.975ZM138.354 8.8514V15.3969H137.561V8.8514H138.354ZM145.21 10.8969H144.417C144.371 10.6689 144.289 10.4686 144.171 10.296C144.056 10.1234 143.916 9.97853 143.749 9.86134C143.585 9.74202 143.403 9.65253 143.203 9.59287C143.003 9.53321 142.794 9.50338 142.577 9.50338C142.18 9.50338 141.821 9.60353 141.499 9.80381C141.18 10.0041 140.925 10.2992 140.736 10.6891C140.548 11.079 140.454 11.5574 140.454 12.1241C140.454 12.6909 140.548 13.1692 140.736 13.5591C140.925 13.9491 141.18 14.2442 141.499 14.4444C141.821 14.6447 142.18 14.7449 142.577 14.7449C142.794 14.7449 143.003 14.715 143.203 14.6554C143.403 14.5957 143.585 14.5073 143.749 14.3901C143.916 14.2708 144.056 14.1248 144.171 13.9522C144.289 13.7775 144.371 13.5772 144.417 13.3514H145.21C145.15 13.6859 145.042 13.9853 144.884 14.2495C144.726 14.5137 144.53 14.7385 144.296 14.9238C144.062 15.1071 143.798 15.2466 143.507 15.3425C143.217 15.4384 142.907 15.4863 142.577 15.4863C142.018 15.4863 141.522 15.35 141.087 15.0772C140.653 14.8045 140.311 14.4167 140.061 13.9139C139.812 13.4111 139.687 12.8145 139.687 12.1241C139.687 11.4338 139.812 10.8372 140.061 10.3344C140.311 9.83151 140.653 9.44373 141.087 9.171C141.522 8.89827 142.018 8.76191 142.577 8.76191C142.907 8.76191 143.217 8.80985 143.507 8.90573C143.798 9.00161 144.062 9.14223 144.296 9.3276C144.53 9.51084 144.726 9.73456 144.884 9.99877C145.042 10.2608 145.15 10.5602 145.21 10.8969Z" fill="#4E5255"/>
<rect x="110.375" y="5.72186" width="41.25" height="12.75" rx="6.375" stroke="#4E5255" stroke-width="0.75"/>
</svg>
